<mxfile host="app.diagrams.net" modified="2020-11-17T11:38:34.456Z" agent="5.0 (Macintosh; Intel Mac OS X 10_15_7) AppleWebKit/605.1.15 (KHTML, like Gecko) Version/13.1.3 Safari/605.1.15" etag="99NzdRnEa_EWwLu2QE4V" version="13.9.9" type="github">
  <diagram id="UUgaOf1F6qNWSPvY_eEi" name="Page-1">
    <mxGraphModel dx="946" dy="662" grid="1" gridSize="10" guides="1" tooltips="1" connect="1" arrows="1" fold="1" page="1" pageScale="1" pageWidth="827" pageHeight="1169" math="0" shadow="0">
      <root>
        <mxCell id="0" />
        <mxCell id="1" parent="0" />
        <mxCell id="LLyH-jrI4SZby10niK_6-6" value="eu-central-1" style="outlineConnect=0;gradientColor=none;html=1;whiteSpace=wrap;fontSize=12;fontStyle=0;shape=mxgraph.aws4.group;grIcon=mxgraph.aws4.group_region;strokeColor=#879196;fillColor=none;verticalAlign=top;align=left;spacingLeft=30;fontColor=#879196;dashed=1;" parent="1" vertex="1">
          <mxGeometry x="94" y="80" width="640" height="580" as="geometry" />
        </mxCell>
        <mxCell id="LLyH-jrI4SZby10niK_6-10" value="eu-central-1a" style="outlineConnect=0;gradientColor=none;html=1;whiteSpace=wrap;fontSize=12;fontStyle=0;shape=mxgraph.aws4.group;grIcon=mxgraph.aws4.group_availability_zone;strokeColor=#545B64;fillColor=none;verticalAlign=top;align=left;spacingLeft=30;fontColor=#545B64;dashed=1;" parent="1" vertex="1">
          <mxGeometry x="104" y="150" width="326" height="500" as="geometry" />
        </mxCell>
        <mxCell id="LLyH-jrI4SZby10niK_6-7" value="eu-central-1c" style="outlineConnect=0;gradientColor=none;html=1;whiteSpace=wrap;fontSize=12;fontStyle=0;shape=mxgraph.aws4.group;grIcon=mxgraph.aws4.group_availability_zone;strokeColor=#545B64;fillColor=none;verticalAlign=top;align=left;spacingLeft=30;fontColor=#545B64;dashed=1;" parent="1" vertex="1">
          <mxGeometry x="580" y="150" width="134" height="500" as="geometry" />
        </mxCell>
        <mxCell id="LLyH-jrI4SZby10niK_6-9" value="eu-central-1b" style="outlineConnect=0;gradientColor=none;html=1;whiteSpace=wrap;fontSize=12;fontStyle=0;shape=mxgraph.aws4.group;grIcon=mxgraph.aws4.group_availability_zone;strokeColor=#545B64;fillColor=none;verticalAlign=top;align=left;spacingLeft=30;fontColor=#545B64;dashed=1;" parent="1" vertex="1">
          <mxGeometry x="440" y="150" width="130" height="500" as="geometry" />
        </mxCell>
        <mxCell id="LLyH-jrI4SZby10niK_6-5" value="VPC 10.0.0.0/16" style="outlineConnect=0;html=1;whiteSpace=wrap;fontSize=12;fontStyle=0;shape=mxgraph.aws4.group;grIcon=mxgraph.aws4.group_vpc;strokeColor=#666666;fillColor=#f5f5f5;verticalAlign=top;align=left;spacingLeft=30;dashed=0;fillOpacity=60;fontColor=#333333;" parent="1" vertex="1">
          <mxGeometry x="114" y="180" width="590" height="460" as="geometry" />
        </mxCell>
        <mxCell id="LLyH-jrI4SZby10niK_6-4" value="Subnet &lt;br&gt;10.0.0.0/21" style="outlineConnect=0;gradientColor=none;html=1;whiteSpace=wrap;fontSize=12;fontStyle=0;shape=mxgraph.aws4.group;grIcon=mxgraph.aws4.group_subnet;strokeColor=#879196;fillColor=none;verticalAlign=top;align=left;spacingLeft=30;fontColor=#879196;dashed=0;" parent="1" vertex="1">
          <mxGeometry x="124" y="280" width="296" height="110" as="geometry" />
        </mxCell>
        <mxCell id="LLyH-jrI4SZby10niK_6-27" style="edgeStyle=orthogonalEdgeStyle;rounded=0;orthogonalLoop=1;jettySize=auto;html=1;exitX=1;exitY=0.5;exitDx=0;exitDy=0;exitPerimeter=0;entryX=0;entryY=0.5;entryDx=0;entryDy=0;entryPerimeter=0;" parent="1" source="LLyH-jrI4SZby10niK_6-2" target="LLyH-jrI4SZby10niK_6-19" edge="1">
          <mxGeometry relative="1" as="geometry" />
        </mxCell>
        <mxCell id="LLyH-jrI4SZby10niK_6-2" value="Internet gateway" style="outlineConnect=0;dashed=0;verticalLabelPosition=bottom;verticalAlign=top;align=center;html=1;shape=mxgraph.aws3.internet_gateway;fillColor=#F58534;gradientColor=none;" parent="1" vertex="1">
          <mxGeometry x="250" y="200" width="28.75" height="30" as="geometry" />
        </mxCell>
        <mxCell id="LLyH-jrI4SZby10niK_6-28" style="edgeStyle=orthogonalEdgeStyle;rounded=0;orthogonalLoop=1;jettySize=auto;html=1;exitX=0.92;exitY=0.5;exitDx=0;exitDy=0;exitPerimeter=0;entryX=0.5;entryY=0;entryDx=0;entryDy=0;entryPerimeter=0;" parent="1" source="LLyH-jrI4SZby10niK_6-12" target="LLyH-jrI4SZby10niK_6-2" edge="1">
          <mxGeometry relative="1" as="geometry" />
        </mxCell>
        <mxCell id="LLyH-jrI4SZby10niK_6-12" value="" style="aspect=fixed;pointerEvents=1;shadow=0;dashed=0;html=1;strokeColor=none;labelPosition=center;verticalLabelPosition=bottom;verticalAlign=top;align=center;fillColor=#00188D;shape=mxgraph.azure.laptop" parent="1" vertex="1">
          <mxGeometry x="124" y="30" width="66.66" height="40" as="geometry" />
        </mxCell>
        <mxCell id="LLyH-jrI4SZby10niK_6-15" value="Subnet&lt;br&gt;10.0.32.0/21" style="outlineConnect=0;gradientColor=none;html=1;whiteSpace=wrap;fontSize=12;fontStyle=0;shape=mxgraph.aws4.group;grIcon=mxgraph.aws4.group_subnet;strokeColor=#879196;fillColor=none;verticalAlign=top;align=left;spacingLeft=30;fontColor=#879196;dashed=0;" parent="1" vertex="1">
          <mxGeometry x="590" y="280" width="104" height="110" as="geometry" />
        </mxCell>
        <mxCell id="LLyH-jrI4SZby10niK_6-16" value="Subnet&lt;br&gt;10.0.16.0/21" style="outlineConnect=0;gradientColor=none;html=1;whiteSpace=wrap;fontSize=12;fontStyle=0;shape=mxgraph.aws4.group;grIcon=mxgraph.aws4.group_subnet;strokeColor=#879196;fillColor=none;verticalAlign=top;align=left;spacingLeft=30;fontColor=#879196;dashed=0;" parent="1" vertex="1">
          <mxGeometry x="450" y="280" width="110" height="110" as="geometry" />
        </mxCell>
        <mxCell id="LLyH-jrI4SZby10niK_6-23" style="edgeStyle=orthogonalEdgeStyle;rounded=0;orthogonalLoop=1;jettySize=auto;html=1;exitX=0.5;exitY=1;exitDx=0;exitDy=0;exitPerimeter=0;" parent="1" source="LLyH-jrI4SZby10niK_6-19" target="LLyH-jrI4SZby10niK_6-16" edge="1">
          <mxGeometry relative="1" as="geometry" />
        </mxCell>
        <mxCell id="LLyH-jrI4SZby10niK_6-24" style="edgeStyle=orthogonalEdgeStyle;rounded=0;orthogonalLoop=1;jettySize=auto;html=1;exitX=0.5;exitY=1;exitDx=0;exitDy=0;exitPerimeter=0;" parent="1" source="LLyH-jrI4SZby10niK_6-19" target="LLyH-jrI4SZby10niK_6-4" edge="1">
          <mxGeometry relative="1" as="geometry" />
        </mxCell>
        <mxCell id="LLyH-jrI4SZby10niK_6-25" style="edgeStyle=orthogonalEdgeStyle;rounded=0;orthogonalLoop=1;jettySize=auto;html=1;exitX=0.5;exitY=1;exitDx=0;exitDy=0;exitPerimeter=0;" parent="1" source="LLyH-jrI4SZby10niK_6-19" target="LLyH-jrI4SZby10niK_6-15" edge="1">
          <mxGeometry relative="1" as="geometry" />
        </mxCell>
        <mxCell id="LLyH-jrI4SZby10niK_6-19" value="Route table public" style="outlineConnect=0;dashed=0;verticalLabelPosition=middle;verticalAlign=middle;align=left;html=1;shape=mxgraph.aws3.route_table;fillColor=#F58536;gradientColor=none;labelPosition=right;" parent="1" vertex="1">
          <mxGeometry x="346" y="204.5" width="23.71" height="21" as="geometry" />
        </mxCell>
        <mxCell id="Gg3K2ls2yGk3OWGE8Ab6-1" value="Security Group" style="fontStyle=0;verticalAlign=top;align=center;spacingTop=-2;fillColor=#fff2cc;rounded=0;whiteSpace=wrap;html=1;strokeColor=#d6b656;strokeWidth=2;dashed=1;container=1;collapsible=0;expand=0;recursiveResize=0;" parent="1" vertex="1">
          <mxGeometry x="310" y="286" width="80" height="96.5" as="geometry" />
        </mxCell>
        <mxCell id="Gg3K2ls2yGk3OWGE8Ab6-4" value="" style="outlineConnect=0;dashed=0;verticalLabelPosition=bottom;verticalAlign=top;align=center;html=1;shape=mxgraph.aws3.ec2;fillColor=#F58534;gradientColor=none;" parent="Gg3K2ls2yGk3OWGE8Ab6-1" vertex="1">
          <mxGeometry x="23.549999999999997" y="40" width="32.9" height="40" as="geometry" />
        </mxCell>
        <mxCell id="wzWREETwLZBb_GzKi2xE-12" style="edgeStyle=orthogonalEdgeStyle;rounded=0;orthogonalLoop=1;jettySize=auto;html=1;exitX=0.5;exitY=1;exitDx=0;exitDy=0;exitPerimeter=0;entryX=1;entryY=0.5;entryDx=0;entryDy=0;startArrow=none;startFill=0;curved=1;endArrow=none;endFill=0;dashed=1;" edge="1" parent="1" source="Gg3K2ls2yGk3OWGE8Ab6-3" target="wzWREETwLZBb_GzKi2xE-5">
          <mxGeometry relative="1" as="geometry" />
        </mxCell>
        <mxCell id="Gg3K2ls2yGk3OWGE8Ab6-3" value="Route 53" style="outlineConnect=0;dashed=0;verticalLabelPosition=middle;verticalAlign=middle;align=left;html=1;shape=mxgraph.aws3.route_53;fillColor=#F58536;gradientColor=none;labelPosition=right;" parent="1" vertex="1">
          <mxGeometry x="530" y="200" width="22.98" height="30" as="geometry" />
        </mxCell>
        <mxCell id="wzWREETwLZBb_GzKi2xE-2" value="Subnet &lt;br&gt;10.0.48.0/21" style="outlineConnect=0;gradientColor=none;html=1;whiteSpace=wrap;fontSize=12;fontStyle=0;shape=mxgraph.aws4.group;grIcon=mxgraph.aws4.group_subnet;strokeColor=#879196;fillColor=none;verticalAlign=top;align=left;spacingLeft=30;fontColor=#879196;dashed=0;" vertex="1" parent="1">
          <mxGeometry x="124" y="400" width="296" height="110" as="geometry" />
        </mxCell>
        <mxCell id="wzWREETwLZBb_GzKi2xE-3" value="Subnet&lt;br&gt;10.0.80.0/21" style="outlineConnect=0;gradientColor=none;html=1;whiteSpace=wrap;fontSize=12;fontStyle=0;shape=mxgraph.aws4.group;grIcon=mxgraph.aws4.group_subnet;strokeColor=#879196;fillColor=none;verticalAlign=top;align=left;spacingLeft=30;fontColor=#879196;dashed=0;" vertex="1" parent="1">
          <mxGeometry x="590" y="400" width="104" height="110" as="geometry" />
        </mxCell>
        <mxCell id="wzWREETwLZBb_GzKi2xE-4" value="Subnet&lt;br&gt;10.0.64.0/21" style="outlineConnect=0;gradientColor=none;html=1;whiteSpace=wrap;fontSize=12;fontStyle=0;shape=mxgraph.aws4.group;grIcon=mxgraph.aws4.group_subnet;strokeColor=#879196;fillColor=none;verticalAlign=top;align=left;spacingLeft=30;fontColor=#879196;dashed=0;" vertex="1" parent="1">
          <mxGeometry x="450" y="400" width="110" height="110" as="geometry" />
        </mxCell>
        <mxCell id="wzWREETwLZBb_GzKi2xE-5" value="Security Group" style="fontStyle=0;verticalAlign=top;align=center;spacingTop=-2;fillColor=#fff2cc;rounded=0;whiteSpace=wrap;html=1;strokeColor=#d6b656;strokeWidth=2;dashed=1;container=1;collapsible=0;expand=0;recursiveResize=0;" vertex="1" parent="1">
          <mxGeometry x="310" y="406" width="80" height="96.5" as="geometry" />
        </mxCell>
        <mxCell id="wzWREETwLZBb_GzKi2xE-6" value="" style="outlineConnect=0;dashed=0;verticalLabelPosition=bottom;verticalAlign=top;align=center;html=1;shape=mxgraph.aws3.ec2;fillColor=#F58534;gradientColor=none;" vertex="1" parent="wzWREETwLZBb_GzKi2xE-5">
          <mxGeometry x="23.549999999999997" y="40" width="32.9" height="40" as="geometry" />
        </mxCell>
        <mxCell id="wzWREETwLZBb_GzKi2xE-7" value="Subnet &lt;br&gt;10.0.0.96/21" style="outlineConnect=0;gradientColor=none;html=1;whiteSpace=wrap;fontSize=12;fontStyle=0;shape=mxgraph.aws4.group;grIcon=mxgraph.aws4.group_subnet;strokeColor=#879196;fillColor=none;verticalAlign=top;align=left;spacingLeft=30;fontColor=#879196;dashed=0;" vertex="1" parent="1">
          <mxGeometry x="124" y="520" width="296" height="110" as="geometry" />
        </mxCell>
        <mxCell id="wzWREETwLZBb_GzKi2xE-8" value="Subnet&amp;nbsp;&lt;br&gt;10.0.128.0/21" style="outlineConnect=0;gradientColor=none;html=1;whiteSpace=wrap;fontSize=12;fontStyle=0;shape=mxgraph.aws4.group;grIcon=mxgraph.aws4.group_subnet;strokeColor=#879196;fillColor=none;verticalAlign=top;align=left;spacingLeft=30;fontColor=#879196;dashed=0;" vertex="1" parent="1">
          <mxGeometry x="590" y="520" width="104" height="110" as="geometry" />
        </mxCell>
        <mxCell id="wzWREETwLZBb_GzKi2xE-9" value="Subnet&lt;br&gt;&amp;nbsp;10.0.112.0/21" style="outlineConnect=0;gradientColor=none;html=1;whiteSpace=wrap;fontSize=12;fontStyle=0;shape=mxgraph.aws4.group;grIcon=mxgraph.aws4.group_subnet;strokeColor=#879196;fillColor=none;verticalAlign=top;align=left;spacingLeft=30;fontColor=#879196;dashed=0;" vertex="1" parent="1">
          <mxGeometry x="450" y="520" width="110" height="110" as="geometry" />
        </mxCell>
        <mxCell id="wzWREETwLZBb_GzKi2xE-10" value="Security Group" style="fontStyle=0;verticalAlign=top;align=center;spacingTop=-2;fillColor=#fff2cc;rounded=0;whiteSpace=wrap;html=1;strokeColor=#d6b656;strokeWidth=2;dashed=1;container=1;collapsible=0;expand=0;recursiveResize=0;" vertex="1" parent="1">
          <mxGeometry x="310" y="526" width="80" height="96.5" as="geometry" />
        </mxCell>
        <mxCell id="wzWREETwLZBb_GzKi2xE-11" value="" style="outlineConnect=0;dashed=0;verticalLabelPosition=bottom;verticalAlign=top;align=center;html=1;shape=mxgraph.aws3.ec2;fillColor=#F58534;gradientColor=none;" vertex="1" parent="wzWREETwLZBb_GzKi2xE-10">
          <mxGeometry x="23.549999999999997" y="40" width="32.9" height="40" as="geometry" />
        </mxCell>
        <mxCell id="wzWREETwLZBb_GzKi2xE-13" style="edgeStyle=orthogonalEdgeStyle;rounded=0;orthogonalLoop=1;jettySize=auto;html=1;exitX=0.5;exitY=1;exitDx=0;exitDy=0;exitPerimeter=0;entryX=1;entryY=0.5;entryDx=0;entryDy=0;startArrow=none;startFill=0;curved=1;endArrow=none;endFill=0;dashed=1;" edge="1" parent="1" source="Gg3K2ls2yGk3OWGE8Ab6-3" target="wzWREETwLZBb_GzKi2xE-10">
          <mxGeometry relative="1" as="geometry">
            <mxPoint x="551.49" y="240" as="sourcePoint" />
            <mxPoint x="400" y="464.25" as="targetPoint" />
          </mxGeometry>
        </mxCell>
      </root>
    </mxGraphModel>
  </diagram>
</mxfile>
